<?xml version="1.0" encoding="UTF-8" standalone="no"?>
<!-- Generator: Adobe Illustrator 25.0.0, SVG Export Plug-In . SVG Version: 6.00 Build 0)  -->

<svg
   version="1.1"
   id="Capa_1"
   x="0px"
   y="0px"
   viewBox="0 0 513.749 513.749"
   style="enable-background:new 0 0 513.749 513.749;"
   xml:space="preserve"
   width="512"
   height="512"
   sodipodi:docname="procurar3.svg"
   inkscape:version="1.2-beta (1b65182ce9, 2022-04-05)"
   xmlns:inkscape="http://www.inkscape.org/namespaces/inkscape"
   xmlns:sodipodi="http://sodipodi.sourceforge.net/DTD/sodipodi-0.dtd"
   xmlns="http://www.w3.org/2000/svg"
   xmlns:svg="http://www.w3.org/2000/svg"><defs
   id="defs9" /><sodipodi:namedview
   id="namedview7"
   pagecolor="#ffffff"
   bordercolor="#000000"
   borderopacity="0.25"
   inkscape:pageshadow="2"
   inkscape:pageopacity="0.0"
   inkscape:pagecheckerboard="0"
   inkscape:deskcolor="#d1d1d1"
   showgrid="false"
   inkscape:zoom="1.5898438"
   inkscape:cx="256"
   inkscape:cy="256"
   inkscape:window-width="1920"
   inkscape:window-height="1001"
   inkscape:window-x="-9"
   inkscape:window-y="-9"
   inkscape:window-maximized="1"
   inkscape:current-layer="Capa_1" />
<g
   id="g4">
	<path
   d="M504.352,459.061l-99.435-99.477c74.402-99.427,54.115-240.344-45.312-314.746S119.261-9.277,44.859,90.15   S-9.256,330.494,90.171,404.896c79.868,59.766,189.565,59.766,269.434,0l99.477,99.477c12.501,12.501,32.769,12.501,45.269,0   c12.501-12.501,12.501-32.769,0-45.269L504.352,459.061z M225.717,385.696c-88.366,0-160-71.634-160-160s71.634-160,160-160   s160,71.634,160,160C385.623,314.022,314.044,385.602,225.717,385.696z"
   id="path2" />
</g>















<path
   style="fill:#ffffff;stroke-width:0.628993"
   d="m 472.90677,510.79245 c -8.5492,-2.07372 -6.7113,-0.42453 -62.18339,-55.79862 -28.37241,-28.32228 -51.81266,-51.49506 -52.08943,-51.49506 -0.27678,0 -4.66005,2.77516 -9.74058,6.16702 C 308.30829,436.7611 261.69781,449.77589 213.4944,447.4725 166.43848,445.22393 121.54515,428.27867 84.285012,398.7016 75.354783,391.61279 56.177121,372.42681 49.156395,363.55774 23.13171,330.68157 7.2388139,292.47641 1.7971062,249.71007 0.40975467,238.80689 0.21339342,211.00602 1.4528001,200.96314 4.3914849,177.15105 9.8846707,156.06115 18.234935,136.53177 48.054985,66.789412 111.42809,16.504531 185.55283,3.7694521 c 15.38022,-2.6424149 21.37162,-3.12669044 38.68304,-3.12669044 16.8522,0 22.98945,0.47345484 37.42506,2.88713414 76.3222,12.7613102 141.84502,65.8474002 170.32183,137.9934442 10.78777,27.33084 15.70546,53.22978 15.70546,82.71253 0,28.23836 -4.93331,54.9143 -14.85899,80.34716 -6.54529,16.7712 -12.29483,27.77537 -22.81201,43.66042 -3.58514,5.41497 -6.51845,10.0859 -6.51845,10.37984 0,0.29394 22.79485,23.31903 50.65523,51.16687 27.86037,27.84785 51.49353,51.92901 52.51813,53.51369 4.29273,6.63931 5.91276,15.86321 4.12243,23.47164 -4.04121,17.17401 -21.21585,28.06097 -37.88779,24.01696 z M 247.38503,383.10324 c 28.59405,-4.27426 55.3373,-15.87099 77.48966,-33.60202 33.61558,-26.90632 55.20356,-67.18881 59.18604,-110.43927 0.90583,-9.83745 0.41652,-28.11284 -1.00323,-37.46981 -5.15984,-34.0065 -21.0594,-65.51042 -45.24932,-89.65857 C 325.11066,99.257987 311.7808,89.713514 295.75412,81.82194 284.35127,76.207149 276.51655,73.25925 265.24675,70.343202 196.65508,52.59521 125.01302,81.698249 88.266699,142.23752 71.322751,170.15254 63.281741,203.06436 65.581973,235.086 c 1.638381,22.80807 6.376526,40.53347 16.18298,60.54054 15.527816,31.67975 40.810317,56.87093 72.967237,72.70369 17.94204,8.83393 33.97462,13.27261 57.55282,15.93372 4.87602,0.55032 28.98754,-0.24701 35.10002,-1.16071 z"
   id="path307"
   transform="scale(1.003416)" /></svg>
